<?xml version="1.0" encoding="UTF-8"?><svg id="a" xmlns="http://www.w3.org/2000/svg" viewBox="0 0 156.46 97.5"><defs><style>.b{fill:#f5f1cc;}</style></defs><path class="b" d="M59.95,14.7c-2.8,5.36-1.16,12.06,3.76,15.6,2.85,2.05,6.44,2.79,9.84,1.83,1.69-.48,3.28-1.33,4.7-2.36,.58-.43,3.3-3.19,3.38-3.17,.33,.07,1.29,1.42,1.63,1.71,.61,.52,1.25,1,1.93,1.41,1.29,.79,2.75,1.39,4.21,1.8,2.68,.76,5.33,.93,7.89-.22,6.75-3.04,8.56-10.11,5.19-16.43-1.73-3.24-6.65-.36-4.92,2.88,1.01,1.9,1.53,4.1,.31,6.02-.98,1.55-2.96,2.72-4.53,2.68-1.91-.05-3.98-.77-5.55-1.83-2.07-1.4-3.03-3.71-5.81-3.92-2.91-.22-4.11,1.82-5.98,3.56-1.83,1.71-4.36,3.11-6.92,2.41-3.75-1.02-6.06-5.55-4.21-9.08,1.7-3.25-3.22-6.14-4.92-2.88h0Z"/><g><path class="b" d="M3.67,7.6H48.73c4.89,0,4.9-7.6,0-7.6H3.67C-1.22,0-1.23,7.6,3.67,7.6h0Z"/><path class="b" d="M8.65,7.94c-1.86,26.02-2.03,52.25,1.61,78.13,.34,2.41,4,1.39,3.67-1.01-3.6-25.52-3.32-51.46-1.48-77.12,.17-2.44-3.63-2.43-3.8,0h0Z"/><path class="b" d="M36.68,5.89c-1.48,29.55,0,59.16,4.31,88.43,.36,2.41,4.02,1.39,3.67-1.01-4.27-28.92-5.64-58.23-4.18-87.42,.12-2.45-3.68-2.44-3.8,0h0Z"/></g><g><path class="b" d="M107.73,7.6h45.06c4.89,0,4.9-7.6,0-7.6h-45.06c-4.89,0-4.9,7.6,0,7.6h0Z"/><path class="b" d="M114.48,4.73c3.8,30.08,5.28,60.73,2.25,90.95-.24,2.43,3.56,2.42,3.8,0,3.03-30.22,1.55-60.87-2.25-90.95-.3-2.39-4.11-2.42-3.8,0h0Z"/><path class="b" d="M143.48,5.26c6.04,25.97,5.35,52.69,3.6,79.12-.16,2.44,3.64,2.43,3.8,0,1.77-26.78,2.39-53.81-3.74-80.13-.55-2.38-4.22-1.37-3.67,1.01h0Z"/></g></svg>