<?xml version="1.0" encoding="UTF-8"?><svg id="a" xmlns="http://www.w3.org/2000/svg" viewBox="0 0 174.28 103.79"><defs><style>.b{fill:#fff;}.c{fill:#161b33;}</style></defs><g><path class="c" d="M133.35,17.37c.12-.17,.24-.34,.37-.5-.05,.07-.21,.26,.05-.06,.21-.26,.43-.53,.65-.78,.44-.52,.9-1.03,1.41-1.49,.13-.11,.27-.22,.39-.34l.08-.07c-.39,.29-.28,.2,.32-.26,.25-.24,.48-.5,.72-.74,.49-.48,1-.95,1.53-1.39,.26-.22,.52-.46,.8-.65-.07,.05-.47,.35-.07,.06,.14-.1,.28-.2,.42-.3,.59-.42,1.18-.83,1.79-1.22,1.15-.75,2.36-1.42,3.62-1.99,.13-.06,.25-.11,.38-.17,.62-.28-.42,.16-.01,0,.29-.11,.58-.23,.87-.34,.68-.25,1.37-.47,2.06-.67,.65-.18,1.3-.33,1.96-.46,.36-.07,.73-.13,1.1-.19,.14-.02,.55-.11-.09,0,.22-.04,.44-.05,.66-.08,1.48-.15,2.97-.18,4.45-.09,.37,.02,.74,.05,1.11,.09,.15,.01,.3,.03,.44,.05,.75,.07-.62-.11,.13,.02,.73,.12,1.46,.25,2.19,.42,.8,.18,1.58,.4,2.36,.66,.42,.14,.84,.29,1.26,.45,.14,.05,.28,.11,.42,.16,.61,.24-.4-.19,.15,.06,1.56,.7,3.06,1.52,4.47,2.49,1.22,.84,3.19,.27,3.87-1.01,.76-1.44,.29-2.98-1.01-3.87-10.92-7.47-26.36-6.82-36.34,1.98-1.29,1.14-2.68,2.43-3.57,3.91-.85,1.41-1.71,2.8-2.4,4.3-.45,.99-.28,2.17,.72,2.75,1.02,.59,2.11,.16,2.75-.72h0Z"/><path class="c" d="M49.36,16.94c-.36-.47-.69-.98-1.09-1.41-.38-.4-.83-.71-1.29-1.02-.76-.53-1.55-1.02-2.35-1.49-1.5-.87-3.04-1.65-4.63-2.34-3.19-1.39-6.47-2.5-9.9-3.13-6.35-1.17-12.97-.98-19.15,1.02-3.39,1.09-6.63,2.67-9.54,4.73-1.2,.85-1.89,2.51-1.01,3.87,.77,1.2,2.58,1.93,3.87,1.01,1.17-.83,2.39-1.59,3.66-2.26,.63-.33,1.27-.65,1.93-.94,.05-.02,.63-.29,.2-.09-.43,.2,.15-.06,.2-.08,.36-.15,.73-.29,1.09-.42,1.35-.49,2.73-.89,4.13-1.2,.7-.16,1.41-.29,2.13-.4,.16-.03,.33-.05,.49-.07,.43-.07-.73,.08-.06,0,.39-.04,.79-.09,1.19-.13,1.47-.13,2.94-.17,4.41-.12,.75,.02,1.49,.07,2.24,.14,.34,.03,.68,.07,1.02,.11,.19,.02,.78,.21,.07,0,.19,.05,.42,.06,.62,.09,3.09,.48,6.12,1.34,9.03,2.51,.2,.08,.41,.16,.61,.25-.63-.27,0,0,.14,.07,.48,.21,.95,.43,1.42,.66,.82,.4,1.62,.81,2.41,1.26,.81,.45,1.59,.93,2.38,1.41,.4,.24,.78,.52,1.19,.75,.59,.32,1.3,.48,1.94,.69,.89,.3,1.94-.14,2.49-.85,.52-.68,.75-1.88,.18-2.63h0Z"/><g><path class="c" d="M5.1,52.17c1.61-16.23,12-31.11,29.31-21.43,16.09,9,17.97,37.28,3.61,48.43-4.6,3.57-10.62,5.67-16.31,4.45-4.65-.99-8.65-4.11-11.48-7.93-4.37-5.91-5.99-14.91-5.13-23.53Z"/><path class="b" d="M15.87,34.78c2.12-1.77,5.23-1.73,7.32,.07,1.75,1.51,2.78,3.95,2.51,6.27,.24,2.28-.47,4.52-1.31,6.67-1.12,2.85-3.06,5.17-6.15,5.82-3.03,.65-5.97-1.4-6.78-4.32-.74-2.68-.43-5.47,.38-8.1,.74-2.39,2.09-4.79,4.03-6.41Z"/></g><g><path class="c" d="M174.06,52.27c-1.61-16.23-12-31.11-29.31-21.43-16.09,9-17.97,37.28-3.61,48.43,4.6,3.57,10.62,5.67,16.31,4.45,4.65-.99,8.65-4.11,11.48-7.93,4.37-5.91,5.99-14.91,5.13-23.53Z"/><path class="b" d="M152.64,46.31c.5-1.55,.7-3.18,.49-4.74-.36-2.71-2.69-4.76-5.47-4.62-1.9,.1-3.64,.97-4.8,2.42-.84,.38-1.61,.89-2.2,1.55-1.6,1.78-2.19,4.16-2.22,6.51-.04,2.38,.07,5.34,2.38,6.67,.64,.36,1.28,.53,1.92,.54,.92,.14,1.88,0,2.85-.41,1.08-.46,1.99-1.08,2.91-1.81,.63-.5,1.21-1.1,1.74-1.75,.47-.45,.88-.94,1.22-1.45,.57-.85,.96-1.87,1.18-2.92Z"/></g></g><path class="c" d="M66.9,95.88c1.48,2.29,4.16,3.81,6.6,4.88,2.83,1.23,5.79,2.07,8.84,2.55,6.26,.97,13.05,.53,19.06-1.55,3.05-1.06,5.89-2.68,8.08-5.09,.73-.8,.79-2.05,0-2.84s-2.02-.71-2.84,0c-.1,.09-.2,.17-.3,.25-.05,.04-.11,.08-.15,.12-.2,.18,.33-.23,.1-.08-.24,.16-.47,.34-.71,.5-.5,.33-1.02,.64-1.55,.92-.55,.29-1.12,.56-1.69,.83-.16,.07-.31,.14-.47,.22-.02,0-.21,.08-.21,.09,0,0,.44-.18,.21-.09-.33,.13-.66,.26-.99,.39-1.29,.49-2.6,.9-3.94,1.23-.7,.17-1.4,.32-2.1,.45-.33,.06-.66,.12-.99,.17-.19,.03-.39,.06-.58,.09-.06,0-.35,.04-.03,0,.34-.04-.05,0-.12,.01-3.01,.35-5.99,.35-9.01,.17-.73-.04-1.47-.1-2.2-.19-.17-.02-.33-.04-.5-.06-.42-.05,.32,.05-.1-.01-.39-.06-.77-.12-1.16-.18-1.38-.24-2.75-.56-4.09-.98-.71-.22-1.41-.47-2.1-.75-.07-.03-.14-.06-.21-.09,.24,.1,.12,.05-.04-.02-.16-.07-.32-.14-.48-.22-.31-.15-.62-.3-.92-.46-1.23-.65-2.35-1.42-3.54-2.13-1.15-.69-2.63,.71-1.87,1.87h0Z"/></svg>