<?xml version="1.0" encoding="UTF-8"?><svg id="a" xmlns="http://www.w3.org/2000/svg" viewBox="0 0 168.89 46.1"><defs><style>.b{fill:#f1dac4;}.c{fill:#a69cac;}</style></defs><path class="c" d="M2.03,10.08c-.21,0-.36-.06-.48-.17-.11-.11-.17-.28-.17-.49V4.14H.55c-.17,0-.3-.04-.39-.13-.09-.09-.14-.21-.14-.36,0-.16,.05-.28,.14-.36,.09-.08,.22-.13,.39-.13H1.74l-.35,.34v-.52c0-.91,.22-1.59,.67-2.06,.44-.47,1.09-.74,1.95-.82l.43-.03c.14-.02,.25,0,.34,.06,.08,.06,.14,.14,.17,.23,.03,.09,.03,.19,0,.29-.02,.1-.07,.18-.13,.26-.07,.07-.15,.12-.25,.13h-.31c-.56,.06-.97,.23-1.22,.51s-.38,.71-.38,1.27v.56l-.18-.21h1.61c.18,0,.31,.04,.41,.13s.14,.21,.14,.36c0,.15-.05,.27-.14,.36-.09,.09-.23,.13-.41,.13h-1.43v5.28c0,.44-.21,.66-.63,.66Z"/><path class="c" d="M8.19,10.11c-.55,0-1.01-.1-1.38-.31-.37-.21-.64-.51-.82-.91s-.27-.91-.27-1.51V3.71c0-.21,.05-.38,.16-.48s.26-.16,.47-.16,.36,.05,.48,.16c.11,.11,.17,.27,.17,.48v3.67c0,.58,.12,1.01,.35,1.28,.23,.28,.6,.41,1.11,.41,.56,0,1.01-.19,1.36-.56,.35-.37,.52-.87,.52-1.48V3.71c0-.21,.05-.38,.16-.48s.26-.16,.47-.16,.36,.05,.48,.16c.11,.11,.17,.27,.17,.48v5.71c0,.44-.21,.66-.62,.66-.21,0-.36-.06-.47-.17-.11-.11-.16-.28-.16-.49v-1.22l.18,.24c-.19,.54-.49,.95-.9,1.24s-.9,.43-1.46,.43Z"/><path class="c" d="M14.29,10.08c-.2,0-.35-.06-.46-.17-.11-.11-.17-.28-.17-.49V3.71c0-.21,.06-.38,.17-.48s.27-.16,.46-.16,.35,.05,.46,.16,.16,.27,.16,.48v1.15l-.15-.21c.2-.53,.52-.93,.96-1.2,.44-.27,.95-.41,1.52-.41s1,.1,1.36,.29c.35,.2,.62,.49,.8,.9s.27,.91,.27,1.53v3.67c0,.21-.05,.38-.16,.49-.11,.11-.26,.17-.47,.17s-.36-.06-.48-.17-.17-.28-.17-.49v-3.6c0-.61-.12-1.05-.35-1.33-.23-.28-.61-.42-1.12-.42-.6,0-1.08,.18-1.44,.55s-.54,.87-.54,1.49v3.3c0,.44-.21,.66-.64,.66Z"/><path class="c" d="M24.63,10.11c-.69,0-1.29-.15-1.79-.44s-.89-.71-1.16-1.25c-.27-.54-.41-1.17-.41-1.9,0-.54,.08-1.03,.23-1.46,.15-.43,.38-.8,.67-1.1,.29-.3,.64-.53,1.06-.69,.42-.16,.88-.24,1.41-.24,.33,0,.67,.05,1.04,.15,.36,.1,.7,.27,1.01,.5,.1,.07,.17,.16,.2,.26,.03,.1,.03,.2,0,.3-.02,.1-.07,.19-.14,.26-.07,.07-.16,.11-.27,.12-.11,0-.22-.02-.34-.1-.22-.17-.46-.29-.71-.36-.25-.07-.48-.11-.71-.11-.35,0-.65,.06-.92,.17-.27,.11-.49,.27-.67,.48-.18,.21-.32,.47-.41,.77-.09,.3-.14,.66-.14,1.06,0,.79,.19,1.42,.56,1.87,.37,.45,.9,.68,1.58,.68,.22,0,.46-.04,.7-.1s.48-.19,.71-.36c.12-.07,.23-.1,.34-.09,.1,.01,.19,.06,.26,.13s.11,.15,.13,.25c.02,.1,.01,.2-.02,.3-.03,.1-.1,.19-.2,.25-.3,.22-.63,.39-.98,.49-.35,.1-.7,.15-1.02,.15Z"/><path class="c" d="M31.02,10.11c-.55,0-1.01-.1-1.38-.29-.37-.2-.64-.48-.83-.85-.18-.37-.27-.83-.27-1.37v-3.44h-.9c-.17,0-.3-.04-.39-.13-.09-.09-.14-.21-.14-.36,0-.16,.05-.28,.14-.36s.22-.13,.39-.13h.9V1.64c0-.21,.06-.38,.17-.48,.11-.11,.27-.16,.48-.16s.36,.05,.47,.16c.11,.11,.16,.27,.16,.48v1.53h1.69c.18,0,.31,.04,.41,.13s.14,.21,.14,.36c0,.15-.05,.27-.14,.36-.09,.09-.23,.13-.41,.13h-1.69v3.33c0,.51,.11,.9,.32,1.16,.21,.26,.57,.39,1.06,.39,.18,0,.33-.02,.45-.05,.12-.03,.23-.05,.32-.05,.08,0,.16,.02,.22,.08,.06,.07,.09,.19,.09,.36,0,.13-.02,.25-.06,.36-.04,.11-.12,.18-.25,.22-.11,.04-.26,.07-.45,.1-.19,.03-.35,.05-.5,.05Z"/><path class="c" d="M33.95,1.58c-.25,0-.45-.07-.59-.2-.15-.14-.22-.31-.22-.54,0-.24,.07-.43,.22-.55,.14-.13,.34-.19,.59-.19,.27,0,.47,.06,.61,.19,.13,.13,.2,.31,.2,.55,0,.22-.07,.4-.2,.54-.14,.14-.34,.2-.61,.2Zm0,8.47c-.2,0-.35-.06-.46-.18-.11-.12-.17-.29-.17-.5V3.78c0-.22,.06-.39,.17-.51s.27-.18,.46-.18c.21,0,.36,.06,.48,.18,.11,.12,.17,.29,.17,.51v5.59c0,.21-.05,.38-.16,.5-.11,.12-.27,.18-.48,.18Z"/><path class="c" d="M39.53,10.11c-.67,0-1.26-.14-1.75-.43-.49-.29-.88-.7-1.15-1.23-.27-.53-.41-1.16-.41-1.88,0-.54,.08-1.03,.23-1.46,.15-.43,.38-.81,.67-1.11,.29-.31,.64-.54,1.04-.71,.41-.16,.86-.24,1.36-.24,.67,0,1.26,.14,1.75,.43,.49,.29,.88,.7,1.15,1.22,.27,.53,.41,1.15,.41,1.87,0,.54-.08,1.03-.23,1.47-.15,.44-.38,.81-.67,1.12-.29,.31-.64,.54-1.04,.71-.41,.16-.86,.25-1.37,.25Zm0-1.01c.41,0,.77-.1,1.07-.29,.3-.2,.54-.48,.7-.85,.16-.37,.25-.84,.25-1.39,0-.82-.18-1.45-.55-1.88-.36-.43-.85-.64-1.47-.64-.4,0-.75,.1-1.06,.29s-.54,.47-.71,.85c-.17,.37-.25,.83-.25,1.39,0,.82,.18,1.45,.55,1.88,.37,.43,.86,.65,1.46,.65Z"/><path class="c" d="M45.11,10.08c-.2,0-.35-.06-.46-.17-.11-.11-.17-.28-.17-.49V3.71c0-.21,.06-.38,.17-.48s.27-.16,.46-.16,.35,.05,.46,.16,.16,.27,.16,.48v1.15l-.15-.21c.2-.53,.52-.93,.96-1.2,.44-.27,.95-.41,1.52-.41s1,.1,1.36,.29c.35,.2,.62,.49,.8,.9s.27,.91,.27,1.53v3.67c0,.21-.05,.38-.16,.49-.11,.11-.26,.17-.47,.17s-.36-.06-.48-.17-.17-.28-.17-.49v-3.6c0-.61-.12-1.05-.35-1.33-.23-.28-.61-.42-1.12-.42-.6,0-1.08,.18-1.44,.55s-.54,.87-.54,1.49v3.3c0,.44-.21,.66-.64,.66Z"/><path class="b" d="M56.8,10.08c-.2,0-.35-.06-.46-.17-.11-.11-.17-.28-.17-.49V3.71c0-.21,.06-.38,.17-.48,.11-.11,.27-.16,.46-.16s.35,.05,.45,.16c.11,.11,.16,.27,.16,.48v1.19l-.15-.25c.18-.51,.46-.91,.86-1.19,.4-.28,.87-.42,1.42-.42,.58,0,1.05,.14,1.4,.41,.35,.28,.59,.69,.71,1.25h-.2c.17-.51,.47-.92,.9-1.22,.43-.3,.94-.45,1.52-.45,.51,0,.94,.1,1.27,.3,.33,.2,.58,.5,.75,.9,.17,.4,.25,.9,.25,1.52v3.67c0,.21-.06,.38-.17,.49s-.27,.17-.46,.17-.36-.06-.48-.17c-.11-.11-.17-.28-.17-.49v-3.61c0-.6-.1-1.04-.31-1.32-.21-.28-.55-.42-1.04-.42-.53,0-.95,.18-1.27,.55-.31,.37-.47,.88-.47,1.52v3.28c0,.21-.05,.38-.16,.49-.11,.11-.26,.17-.47,.17s-.36-.06-.48-.17c-.11-.11-.17-.28-.17-.49v-3.61c0-.6-.1-1.04-.31-1.32-.21-.28-.55-.42-1.04-.42-.53,0-.95,.18-1.27,.55-.31,.37-.47,.88-.47,1.52v3.28c0,.44-.21,.66-.64,.66Z"/><path class="b" d="M69.69,12.6c-.15,0-.27-.04-.37-.12-.1-.08-.15-.19-.17-.32-.01-.14,.01-.28,.08-.43l.95-2.16v.53l-2.65-6.16c-.07-.16-.09-.3-.07-.43,.02-.13,.08-.24,.19-.32,.11-.08,.25-.13,.44-.13,.16,0,.28,.04,.38,.11,.09,.08,.18,.21,.27,.39l2.2,5.42h-.39l2.24-5.42c.07-.19,.16-.32,.27-.39,.1-.07,.24-.11,.42-.11,.16,0,.28,.04,.37,.13,.09,.08,.14,.19,.16,.32,.02,.13,0,.27-.08,.42l-3.53,8.16c-.09,.2-.19,.33-.29,.4-.1,.07-.24,.1-.41,.1Z"/><path class="b" d="M76.21,10.08c-.21,0-.38-.06-.5-.18-.12-.12-.18-.29-.18-.52V.81c0-.22,.06-.4,.18-.52s.29-.18,.52-.18h5.03c.19,0,.33,.04,.42,.13s.14,.22,.14,.38c0,.18-.05,.31-.14,.41s-.23,.14-.42,.14h-4.42v3.3h4.14c.18,0,.31,.05,.41,.14s.14,.22,.14,.38c0,.18-.05,.31-.14,.41-.09,.09-.23,.14-.41,.14h-4.14v3.84c0,.47-.21,.7-.62,.7Z"/><path class="b" d="M85.34,10.11c-.55,0-1.01-.1-1.38-.31-.37-.21-.64-.51-.82-.91s-.27-.91-.27-1.51V3.71c0-.21,.05-.38,.16-.48s.26-.16,.47-.16,.36,.05,.48,.16c.11,.11,.17,.27,.17,.48v3.67c0,.58,.12,1.01,.35,1.28,.23,.28,.6,.41,1.11,.41,.56,0,1.01-.19,1.36-.56,.35-.37,.52-.87,.52-1.48V3.71c0-.21,.05-.38,.16-.48s.26-.16,.47-.16,.36,.05,.48,.16c.11,.11,.17,.27,.17,.48v5.71c0,.44-.21,.66-.62,.66-.21,0-.36-.06-.47-.17-.11-.11-.16-.28-.16-.49v-1.22l.18,.24c-.19,.54-.49,.95-.9,1.24s-.9,.43-1.46,.43Z"/><path class="b" d="M91.45,10.08c-.2,0-.35-.06-.46-.17-.11-.11-.17-.28-.17-.49V3.71c0-.21,.06-.38,.17-.48s.27-.16,.46-.16,.35,.05,.46,.16,.16,.27,.16,.48v1.15l-.15-.21c.2-.53,.52-.93,.96-1.2,.44-.27,.95-.41,1.52-.41s1,.1,1.36,.29c.35,.2,.62,.49,.8,.9s.27,.91,.27,1.53v3.67c0,.21-.05,.38-.16,.49-.11,.11-.26,.17-.47,.17s-.36-.06-.48-.17-.17-.28-.17-.49v-3.6c0-.61-.12-1.05-.35-1.33-.23-.28-.61-.42-1.12-.42-.6,0-1.08,.18-1.44,.55s-.54,.87-.54,1.49v3.3c0,.44-.21,.66-.64,.66Z"/><path class="b" d="M101.78,10.11c-.69,0-1.29-.15-1.79-.44s-.89-.71-1.16-1.25c-.27-.54-.41-1.17-.41-1.9,0-.54,.08-1.03,.23-1.46,.15-.43,.38-.8,.67-1.1,.29-.3,.64-.53,1.06-.69,.42-.16,.88-.24,1.41-.24,.33,0,.67,.05,1.04,.15,.36,.1,.7,.27,1.01,.5,.1,.07,.17,.16,.2,.26,.03,.1,.03,.2,0,.3-.02,.1-.07,.19-.14,.26-.07,.07-.16,.11-.27,.12-.11,0-.22-.02-.34-.1-.22-.17-.46-.29-.71-.36-.25-.07-.48-.11-.71-.11-.35,0-.65,.06-.92,.17-.27,.11-.49,.27-.67,.48-.18,.21-.32,.47-.41,.77-.09,.3-.14,.66-.14,1.06,0,.79,.19,1.42,.56,1.87,.37,.45,.9,.68,1.58,.68,.22,0,.46-.04,.7-.1s.48-.19,.71-.36c.12-.07,.23-.1,.34-.09,.1,.01,.19,.06,.26,.13s.11,.15,.13,.25c.02,.1,.01,.2-.02,.3-.03,.1-.1,.19-.2,.25-.3,.22-.63,.39-.98,.49-.35,.1-.7,.15-1.02,.15Z"/><path class="b" d="M108.17,10.11c-.55,0-1.01-.1-1.38-.29-.37-.2-.64-.48-.83-.85-.18-.37-.27-.83-.27-1.37v-3.44h-.9c-.17,0-.3-.04-.39-.13-.09-.09-.14-.21-.14-.36,0-.16,.05-.28,.14-.36s.22-.13,.39-.13h.9V1.64c0-.21,.06-.38,.17-.48,.11-.11,.27-.16,.48-.16s.36,.05,.47,.16c.11,.11,.16,.27,.16,.48v1.53h1.69c.18,0,.31,.04,.41,.13s.14,.21,.14,.36c0,.15-.05,.27-.14,.36-.09,.09-.23,.13-.41,.13h-1.69v3.33c0,.51,.11,.9,.32,1.16,.21,.26,.57,.39,1.06,.39,.18,0,.33-.02,.45-.05,.12-.03,.23-.05,.32-.05,.08,0,.16,.02,.22,.08,.06,.07,.09,.19,.09,.36,0,.13-.02,.25-.06,.36-.04,.11-.12,.18-.25,.22-.11,.04-.26,.07-.45,.1-.19,.03-.35,.05-.5,.05Z"/><path class="b" d="M111.1,1.58c-.25,0-.45-.07-.59-.2-.15-.14-.22-.31-.22-.54,0-.24,.07-.43,.22-.55,.14-.13,.34-.19,.59-.19,.27,0,.47,.06,.61,.19,.13,.13,.2,.31,.2,.55,0,.22-.07,.4-.2,.54-.14,.14-.34,.2-.61,.2Zm0,8.47c-.2,0-.35-.06-.46-.18-.11-.12-.17-.29-.17-.5V3.78c0-.22,.06-.39,.17-.51s.27-.18,.46-.18c.21,0,.36,.06,.48,.18,.11,.12,.17,.29,.17,.51v5.59c0,.21-.05,.38-.16,.5-.11,.12-.27,.18-.48,.18Z"/><path class="b" d="M116.69,10.11c-.67,0-1.26-.14-1.75-.43-.49-.29-.88-.7-1.15-1.23-.27-.53-.41-1.16-.41-1.88,0-.54,.08-1.03,.23-1.46,.15-.43,.38-.81,.67-1.11,.29-.31,.64-.54,1.04-.71,.41-.16,.86-.24,1.36-.24,.67,0,1.26,.14,1.75,.43,.49,.29,.88,.7,1.15,1.22,.27,.53,.41,1.15,.41,1.87,0,.54-.08,1.03-.23,1.47-.15,.44-.38,.81-.67,1.12-.29,.31-.64,.54-1.04,.71-.41,.16-.86,.25-1.37,.25Zm0-1.01c.41,0,.77-.1,1.07-.29,.3-.2,.54-.48,.7-.85,.16-.37,.25-.84,.25-1.39,0-.82-.18-1.45-.55-1.88-.36-.43-.85-.64-1.47-.64-.4,0-.75,.1-1.06,.29s-.54,.47-.71,.85c-.17,.37-.25,.83-.25,1.39,0,.82,.18,1.45,.55,1.88,.37,.43,.86,.65,1.46,.65Z"/><path class="b" d="M122.26,10.08c-.2,0-.35-.06-.46-.17-.11-.11-.17-.28-.17-.49V3.71c0-.21,.06-.38,.17-.48s.27-.16,.46-.16,.35,.05,.46,.16,.16,.27,.16,.48v1.15l-.15-.21c.2-.53,.52-.93,.96-1.2,.44-.27,.95-.41,1.52-.41s1,.1,1.36,.29c.35,.2,.62,.49,.8,.9s.27,.91,.27,1.53v3.67c0,.21-.05,.38-.16,.49-.11,.11-.26,.17-.47,.17s-.36-.06-.48-.17-.17-.28-.17-.49v-3.6c0-.61-.12-1.05-.35-1.33-.23-.28-.61-.42-1.12-.42-.6,0-1.08,.18-1.44,.55s-.54,.87-.54,1.49v3.3c0,.44-.21,.66-.64,.66Z"/><path class="c" d="M131.57,12.33c-.52-.96-.91-1.95-1.16-2.96-.25-1.01-.37-2.04-.37-3.07,0-.69,.05-1.38,.16-2.06,.11-.68,.28-1.36,.5-2.02,.23-.67,.52-1.32,.86-1.95,.07-.13,.18-.21,.31-.25,.13-.03,.25-.02,.37,.03s.2,.14,.26,.27c.06,.13,.05,.29-.01,.48-.24,.62-.45,1.23-.61,1.83-.16,.61-.28,1.21-.36,1.82-.08,.61-.12,1.22-.12,1.85s.04,1.24,.12,1.85c.08,.61,.2,1.21,.37,1.81s.37,1.22,.6,1.84c.07,.19,.08,.35,.02,.48s-.15,.22-.27,.27c-.12,.05-.24,.05-.37,.02-.13-.03-.23-.11-.31-.23Z"/><path class="c" d="M136.37,10.11c-.47,0-.89-.09-1.27-.28-.38-.19-.67-.44-.88-.76-.21-.32-.31-.67-.31-1.06,0-.5,.13-.9,.38-1.19,.25-.29,.68-.5,1.27-.62s1.4-.19,2.41-.19h.66v.81h-.63c-.72,0-1.29,.03-1.7,.1-.42,.07-.71,.18-.88,.34-.17,.16-.25,.39-.25,.68,0,.36,.13,.66,.39,.9,.26,.23,.61,.35,1.06,.35,.35,0,.67-.09,.94-.26,.27-.17,.48-.41,.64-.7,.16-.29,.24-.63,.24-1.02v-1.61c0-.55-.11-.95-.34-1.2-.22-.25-.6-.37-1.13-.37-.31,0-.62,.04-.95,.13-.33,.08-.67,.21-1.02,.39-.14,.07-.26,.09-.36,.06-.1-.02-.18-.08-.25-.17-.06-.09-.09-.19-.1-.29,0-.11,.02-.21,.07-.31,.05-.1,.14-.18,.27-.22,.41-.21,.82-.35,1.23-.44,.41-.09,.79-.13,1.14-.13,.61,0,1.11,.1,1.5,.29,.39,.19,.69,.49,.88,.88s.29,.9,.29,1.52v3.7c0,.21-.05,.38-.15,.49-.1,.11-.25,.17-.45,.17s-.33-.06-.44-.17c-.11-.11-.16-.28-.16-.49v-.99h.13c-.07,.35-.21,.64-.42,.9-.21,.25-.46,.45-.76,.58-.3,.14-.65,.2-1.03,.2Z"/><path class="c" d="M142.42,11.35c-.09,.12-.19,.19-.3,.21-.11,.02-.2,0-.28-.06-.08-.06-.12-.14-.13-.25,0-.11,.04-.23,.14-.36,.16-.21,.27-.41,.33-.62,.06-.21,.09-.4,.09-.57l.06,.34c-.26,0-.47-.08-.64-.23-.16-.15-.25-.36-.25-.61s.07-.44,.22-.59c.15-.15,.35-.22,.6-.22s.46,.09,.61,.26c.15,.17,.23,.43,.23,.76,0,.2-.02,.4-.06,.62s-.11,.44-.2,.67c-.09,.22-.23,.44-.42,.66Z"/><path class="c" d="M152.15,10.11c-.62,0-1.14-.15-1.58-.46-.44-.31-.73-.72-.88-1.25l.15-.21v1.23c0,.21-.05,.38-.16,.49-.11,.11-.26,.17-.47,.17s-.35-.06-.46-.17c-.11-.11-.17-.28-.17-.49V.66c0-.21,.06-.38,.17-.48,.11-.11,.27-.16,.46-.16,.21,0,.36,.05,.48,.16,.11,.11,.17,.27,.17,.48V4.7h-.15c.15-.5,.44-.91,.88-1.21,.44-.3,.96-.46,1.57-.46s1.14,.14,1.59,.43c.45,.28,.8,.69,1.05,1.22,.25,.53,.37,1.15,.37,1.88s-.13,1.35-.38,1.88c-.25,.54-.6,.95-1.05,1.23-.45,.28-.98,.43-1.58,.43Zm-.29-1.01c.4,0,.75-.1,1.06-.29,.3-.2,.54-.48,.71-.85,.17-.37,.25-.84,.25-1.39,0-.82-.18-1.45-.55-1.88-.36-.43-.85-.64-1.47-.64-.41,0-.77,.1-1.07,.29s-.54,.47-.7,.85c-.16,.37-.24,.83-.24,1.39,0,.82,.18,1.45,.55,1.88,.36,.43,.85,.65,1.47,.65Z"/><path class="c" d="M157.24,12.33c-.07,.12-.18,.2-.31,.23-.13,.03-.25,.02-.37-.03-.12-.05-.2-.14-.26-.27-.06-.13-.05-.28,.03-.47,.25-.62,.46-1.24,.62-1.84s.28-1.21,.36-1.81c.08-.61,.12-1.22,.12-1.85s-.04-1.24-.13-1.85c-.08-.61-.21-1.21-.37-1.81-.16-.6-.36-1.22-.59-1.84-.08-.19-.08-.35-.03-.48,.06-.13,.14-.22,.27-.27,.12-.05,.25-.06,.37-.03s.23,.11,.3,.25c.53,.95,.92,1.93,1.17,2.95,.25,1.01,.37,2.04,.37,3.09,0,.69-.06,1.38-.17,2.06-.11,.69-.28,1.36-.5,2.02s-.51,1.31-.87,1.95Z"/><path class="c" d="M167.35,12.5c-.31,0-.57-.06-.79-.17s-.39-.28-.5-.5c-.12-.22-.18-.5-.18-.81v-3.08c0-.38-.07-.66-.22-.84-.15-.18-.41-.27-.81-.28-.13,0-.24-.06-.32-.16-.08-.1-.13-.22-.13-.36s.04-.26,.13-.36,.19-.15,.32-.15c.39-.02,.66-.12,.81-.29,.14-.18,.22-.45,.22-.83V1.59c0-.48,.13-.84,.39-1.1,.26-.26,.62-.39,1.08-.39h.99c.16,0,.29,.05,.39,.14,.1,.09,.15,.21,.15,.35s-.05,.26-.14,.36-.21,.15-.35,.15h-.64c-.2,0-.35,.05-.45,.15s-.15,.26-.15,.46v3.09c0,.28-.06,.53-.17,.76-.11,.23-.26,.41-.46,.55-.19,.14-.41,.21-.65,.21v-.06c.24,0,.46,.07,.65,.2,.19,.13,.34,.31,.46,.54,.11,.23,.17,.49,.17,.78v3.09c0,.21,.05,.36,.15,.46s.25,.15,.45,.15h.64c.14,0,.26,.05,.35,.15,.09,.1,.14,.22,.14,.36s-.05,.26-.15,.35c-.1,.09-.23,.14-.39,.14h-.99Z"/><path class="c" d="M8.96,26.88c-.21,0-.38-.06-.49-.17-.11-.11-.17-.28-.17-.49v-5.71c0-.21,.06-.38,.17-.48s.27-.16,.46-.16,.35,.05,.46,.16,.16,.27,.16,.48v1.08h-.14c.15-.56,.43-.98,.84-1.27,.41-.29,.93-.45,1.55-.49,.15,0,.27,.03,.36,.1,.09,.08,.14,.21,.15,.4,0,.18-.03,.32-.13,.43s-.24,.17-.43,.19h-.25c-.62,.08-1.09,.28-1.42,.62-.33,.34-.5,.8-.5,1.39v3.28c0,.21-.05,.38-.16,.49-.11,.11-.26,.17-.47,.17Z"/><path class="c" d="M16.46,26.91c-.74,0-1.37-.14-1.9-.43s-.94-.69-1.23-1.22c-.29-.53-.43-1.15-.43-1.87s.14-1.33,.43-1.86,.68-.95,1.18-1.25c.5-.3,1.07-.45,1.71-.45,.46,0,.87,.08,1.24,.23,.37,.15,.68,.38,.95,.67,.26,.29,.46,.64,.59,1.06,.14,.42,.2,.88,.2,1.41,0,.15-.04,.26-.13,.34-.09,.08-.22,.12-.39,.12h-4.79v-.81h4.47l-.24,.2c0-.49-.07-.9-.22-1.24-.15-.34-.35-.6-.63-.78-.28-.18-.62-.27-1.03-.27-.45,0-.83,.1-1.15,.31s-.56,.5-.73,.88c-.17,.38-.25,.81-.25,1.31v.08c0,.84,.2,1.48,.6,1.9s.98,.64,1.74,.64c.3,0,.6-.04,.92-.11,.31-.07,.61-.21,.9-.41,.14-.08,.27-.12,.38-.12,.12,0,.21,.04,.29,.11,.07,.07,.12,.15,.14,.25,.02,.1,0,.2-.04,.31-.05,.11-.14,.21-.27,.29-.31,.21-.67,.38-1.1,.5-.42,.12-.83,.17-1.23,.17Z"/><path class="c" d="M23.6,26.91c-.55,0-1.01-.1-1.38-.29-.37-.2-.64-.48-.83-.85-.18-.37-.27-.83-.27-1.37v-3.44h-.9c-.17,0-.3-.04-.39-.13-.09-.09-.14-.21-.14-.36,0-.16,.05-.28,.14-.36s.22-.13,.39-.13h.9v-1.53c0-.21,.06-.38,.17-.48,.11-.11,.27-.16,.48-.16s.36,.05,.47,.16c.11,.11,.16,.27,.16,.48v1.53h1.69c.18,0,.31,.04,.41,.13s.14,.21,.14,.36c0,.15-.05,.27-.14,.36-.09,.09-.23,.13-.41,.13h-1.69v3.33c0,.51,.11,.9,.32,1.16,.21,.26,.57,.39,1.06,.39,.18,0,.33-.02,.45-.05,.12-.03,.23-.05,.32-.05,.08,0,.16,.02,.22,.08,.06,.07,.09,.19,.09,.36,0,.13-.02,.25-.06,.36-.04,.11-.12,.18-.25,.22-.11,.04-.26,.07-.45,.1-.19,.03-.35,.05-.5,.05Z"/><path class="c" d="M28.22,26.91c-.55,0-1.01-.1-1.38-.31-.37-.21-.64-.51-.82-.91s-.27-.91-.27-1.51v-3.67c0-.21,.05-.38,.16-.48s.26-.16,.47-.16,.36,.05,.48,.16c.11,.11,.17,.27,.17,.48v3.67c0,.58,.12,1.01,.35,1.28,.23,.28,.6,.41,1.11,.41,.56,0,1.01-.19,1.36-.56,.35-.37,.52-.87,.52-1.48v-3.32c0-.21,.05-.38,.16-.48s.26-.16,.47-.16,.36,.05,.48,.16c.11,.11,.17,.27,.17,.48v5.71c0,.44-.21,.66-.62,.66-.21,0-.36-.06-.47-.17-.11-.11-.16-.28-.16-.49v-1.22l.18,.24c-.19,.54-.49,.95-.9,1.24s-.9,.43-1.46,.43Z"/><path class="c" d="M34.36,26.88c-.21,0-.38-.06-.49-.17-.11-.11-.17-.28-.17-.49v-5.71c0-.21,.06-.38,.17-.48s.27-.16,.46-.16,.35,.05,.46,.16,.16,.27,.16,.48v1.08h-.14c.15-.56,.43-.98,.84-1.27,.41-.29,.93-.45,1.55-.49,.15,0,.27,.03,.36,.1,.09,.08,.14,.21,.15,.4,0,.18-.03,.32-.13,.43s-.24,.17-.43,.19h-.25c-.62,.08-1.09,.28-1.42,.62-.33,.34-.5,.8-.5,1.39v3.28c0,.21-.05,.38-.16,.49-.11,.11-.26,.17-.47,.17Z"/><path class="c" d="M39.44,26.88c-.2,0-.35-.06-.46-.17-.11-.11-.17-.28-.17-.49v-5.71c0-.21,.06-.38,.17-.48s.27-.16,.46-.16,.35,.05,.46,.16,.16,.27,.16,.48v1.15l-.15-.21c.2-.53,.52-.93,.96-1.2,.44-.27,.95-.41,1.52-.41s1,.1,1.36,.29c.35,.2,.62,.49,.8,.9s.27,.91,.27,1.53v3.67c0,.21-.05,.38-.16,.49-.11,.11-.26,.17-.47,.17s-.36-.06-.48-.17-.17-.28-.17-.49v-3.6c0-.61-.12-1.05-.35-1.33-.23-.28-.61-.42-1.12-.42-.6,0-1.08,.18-1.44,.55s-.54,.87-.54,1.49v3.3c0,.44-.21,.66-.64,.66Z"/><path class="b" d="M52.64,26.91c-.47,0-.89-.09-1.27-.28-.38-.19-.67-.44-.88-.76-.21-.32-.31-.67-.31-1.06,0-.5,.13-.9,.38-1.19,.25-.29,.68-.5,1.27-.62s1.4-.19,2.41-.19h.66v.81h-.63c-.72,0-1.29,.03-1.7,.1-.42,.07-.71,.18-.88,.34-.17,.16-.25,.39-.25,.68,0,.36,.13,.66,.39,.9,.26,.23,.61,.35,1.06,.35,.35,0,.67-.09,.94-.26,.27-.17,.48-.41,.64-.7,.16-.29,.24-.63,.24-1.02v-1.61c0-.55-.11-.95-.34-1.2-.22-.25-.6-.37-1.13-.37-.31,0-.62,.04-.95,.13-.33,.08-.67,.21-1.02,.39-.14,.07-.26,.09-.36,.06-.1-.02-.18-.08-.25-.17-.06-.09-.09-.19-.1-.29,0-.11,.02-.21,.07-.31,.05-.1,.14-.18,.27-.22,.41-.21,.82-.35,1.23-.44,.41-.09,.79-.13,1.14-.13,.61,0,1.11,.1,1.5,.29,.39,.19,.69,.49,.88,.88s.29,.9,.29,1.52v3.7c0,.21-.05,.38-.15,.49-.1,.11-.25,.17-.45,.17s-.33-.06-.44-.17c-.11-.11-.16-.28-.16-.49v-.99h.13c-.07,.35-.21,.64-.42,.9-.21,.25-.46,.45-.76,.58-.3,.14-.65,.2-1.03,.2Z"/><path class="b" d="M61.74,21.84c-.16,0-.28-.04-.36-.13s-.13-.2-.13-.35,.04-.27,.13-.35,.21-.13,.36-.13h6.05c.16,0,.28,.04,.36,.13s.13,.2,.13,.35-.04,.27-.13,.35-.21,.13-.36,.13h-6.05Zm0,2.79c-.16,0-.28-.04-.36-.13s-.13-.2-.13-.35,.04-.26,.13-.34c.08-.08,.21-.12,.36-.12h6.05c.16,0,.28,.04,.36,.12,.08,.08,.13,.19,.13,.34,0,.16-.04,.28-.13,.36s-.21,.12-.36,.12h-6.05Z"/><path class="b" d="M70.14,21.84c-.16,0-.28-.04-.36-.13s-.13-.2-.13-.35,.04-.27,.13-.35,.21-.13,.36-.13h6.05c.16,0,.28,.04,.36,.13s.13,.2,.13,.35-.04,.27-.13,.35-.21,.13-.36,.13h-6.05Zm0,2.79c-.16,0-.28-.04-.36-.13s-.13-.2-.13-.35,.04-.26,.13-.34c.08-.08,.21-.12,.36-.12h6.05c.16,0,.28,.04,.36,.12,.08,.08,.13,.19,.13,.34,0,.16-.04,.28-.13,.36s-.21,.12-.36,.12h-6.05Z"/><path class="b" d="M78.54,21.84c-.16,0-.28-.04-.36-.13s-.13-.2-.13-.35,.04-.27,.13-.35,.21-.13,.36-.13h6.05c.16,0,.28,.04,.36,.13s.13,.2,.13,.35-.04,.27-.13,.35-.21,.13-.36,.13h-6.05Zm0,2.79c-.16,0-.28-.04-.36-.13s-.13-.2-.13-.35,.04-.26,.13-.34c.08-.08,.21-.12,.36-.12h6.05c.16,0,.28,.04,.36,.12,.08,.08,.13,.19,.13,.34,0,.16-.04,.28-.13,.36s-.21,.12-.36,.12h-6.05Z"/><path class="b" d="M94.01,26.91c-.62,0-1.14-.15-1.58-.46-.44-.31-.73-.72-.88-1.25l.15-.21v1.23c0,.21-.05,.38-.16,.49-.11,.11-.26,.17-.47,.17s-.35-.06-.46-.17c-.11-.11-.17-.28-.17-.49v-8.76c0-.21,.06-.38,.17-.48,.11-.11,.27-.16,.46-.16,.21,0,.36,.05,.48,.16,.11,.11,.17,.27,.17,.48v4.05h-.15c.15-.5,.44-.91,.88-1.21,.44-.3,.96-.46,1.57-.46s1.14,.14,1.59,.43c.45,.28,.8,.69,1.05,1.22,.25,.53,.37,1.15,.37,1.88s-.13,1.35-.38,1.88c-.25,.54-.6,.95-1.05,1.23-.45,.28-.98,.43-1.58,.43Zm-.29-1.01c.4,0,.75-.1,1.06-.29,.3-.2,.54-.48,.71-.85,.17-.37,.25-.84,.25-1.39,0-.82-.18-1.45-.55-1.88-.36-.43-.85-.64-1.47-.64-.41,0-.77,.1-1.07,.29s-.54,.47-.7,.85c-.16,.37-.24,.83-.24,1.39,0,.82,.18,1.45,.55,1.88,.36,.43,.85,.65,1.47,.65Z"/><path class="c" d="M99.27,21.56c-.24,0-.44-.08-.6-.23-.16-.15-.24-.35-.24-.59s.08-.44,.24-.6c.16-.15,.36-.23,.6-.23,.26,0,.46,.08,.61,.23,.14,.15,.22,.35,.22,.6s-.07,.44-.22,.59c-.15,.15-.35,.23-.61,.23Zm.14,6.59c-.09,.12-.19,.19-.3,.21-.11,.02-.2,0-.28-.06-.08-.06-.12-.14-.13-.25,0-.11,.04-.23,.14-.36,.16-.21,.27-.41,.33-.62,.06-.21,.09-.4,.09-.57l.06,.34c-.26,0-.47-.08-.64-.23-.16-.15-.25-.36-.25-.61s.07-.44,.22-.59c.15-.15,.35-.22,.6-.22s.46,.09,.61,.26c.15,.17,.23,.43,.23,.76,0,.2-.02,.4-.06,.62s-.11,.44-.2,.67c-.09,.22-.23,.44-.42,.66Z"/><path class="c" d="M.53,46.1c-.15,0-.28-.05-.38-.14-.1-.09-.15-.21-.15-.35s.04-.26,.13-.36c.09-.1,.2-.15,.34-.15h.66c.2,0,.34-.05,.44-.15,.1-.1,.15-.26,.15-.46v-3.09c0-.29,.06-.55,.17-.78s.27-.41,.46-.55c.2-.14,.42-.2,.66-.2v.06c-.24,0-.46-.07-.66-.2-.2-.14-.35-.32-.46-.55-.11-.23-.17-.48-.17-.76v-3.09c0-.21-.05-.36-.15-.46-.1-.1-.25-.15-.44-.15H.48c-.14,0-.25-.05-.34-.15-.09-.1-.13-.22-.13-.36s.05-.26,.15-.35c.1-.09,.23-.14,.38-.14h.99c.32,0,.59,.06,.8,.17,.22,.11,.39,.28,.5,.5,.11,.22,.17,.5,.17,.81v3.08c0,.37,.07,.65,.22,.83,.15,.18,.42,.28,.8,.29,.14,0,.25,.05,.33,.15,.08,.1,.12,.22,.12,.36,0,.13-.04,.25-.12,.34-.08,.1-.19,.15-.33,.16-.38,0-.65,.09-.8,.27-.15,.18-.22,.46-.22,.85v3.08c0,.48-.13,.84-.38,1.1-.25,.26-.62,.39-1.09,.39H.53Z"/></svg>