<?xml version="1.0" encoding="utf-8"?>
<!-- Generator: Adobe Illustrator 26.2.1, SVG Export Plug-In . SVG Version: 6.00 Build 0)  -->
<svg version="1.1" id="a" xmlns="http://www.w3.org/2000/svg" xmlns:xlink="http://www.w3.org/1999/xlink" x="0px" y="0px"
	 viewBox="0 0 158.8 46.1" style="enable-background:new 0 0 158.8 46.1;" xml:space="preserve">
<style type="text/css">
	.st0{fill:#00FF4E;}
</style>
<path class="st0" d="M59.5,24.7l5,5l5,5l5,5c1.4,1.4,3.6,1.4,5,0l5-5l5-5l5-5l1.6-1.6l8.4-8.4c1.4-1.4,1.4-3.6,0-5l-5-5
	c-1.4-1.4-3.6-1.4-5,0l-5,5L89.1,10l-3.1,3.1l-0.7,0.6l-0.9,0.9l-5,5c-1.4,1.4-3.6,1.4-5,0l-5-5c-1.4-1.4-3.6-1.4-5,0l-5,5
	C58.1,21.1,58.1,23.3,59.5,24.7L59.5,24.7L59.5,24.7z"/>
</svg>
