<?xml version="1.0" encoding="utf-8"?>
<!-- Generator: Adobe Illustrator 26.2.1, SVG Export Plug-In . SVG Version: 6.00 Build 0)  -->
<svg version="1.1" id="Layer_1" xmlns="http://www.w3.org/2000/svg" xmlns:xlink="http://www.w3.org/1999/xlink" x="0px" y="0px"
	 viewBox="0 0 700 700" style="enable-background:new 0 0 700 700;" xml:space="preserve">
<style type="text/css">
	.st0{fill:none;stroke:#000000;stroke-width:11;stroke-miterlimit:10;}
</style>
<g>
	<path d="M471.8,443.4l-74.4-40.8c-2.7-1.6-5.6-4-6.2-5.2v-23.6c20.5-13.7,34.1-37,34.1-63.5v-7.2c11.2,0,36.7-4.2,38.5-41.9
		c12.8-5.6,19.8-17,19.8-32.5c0-11.9-4.6-19.6-8.9-25.1c11.6-6.7,19.2-19.3,19.2-33.1c0-19.2-14.3-35.1-33.2-37.7
		c-5.1-20.9-24.1-36.2-46.1-36.2c-7,0-13.8,1.5-20.1,4.4c-6.4-13.5-19.5-21.6-35.8-21.6c-1.2,0-2.5,0.1-3.7,0.2
		c-10.1-8.5-23.4-13.7-35.5-13.7c-26.9,0-49.2,20.4-52.2,46.6c-26.2,2.9-46.6,25.2-46.6,52.2c0,7.3,2,15.6,5.6,23.2
		c-11.2,8.8-19.4,25.1-19.4,40c0,22.7,17.3,43.3,38.3,47.1c2.1,15.5,13,26.5,27.6,28v7.4c0,26.8,13.9,50.3,34.8,63.9v23.2
		c-0.6,1.2-3.5,3.6-6.1,5.1l-74.6,40.9c-0.1,0.1-0.2,0.1-0.3,0.2c-20.8,13.6-20.4,44.2-20.4,45.5c0.1,2.8,2.3,5,5.1,5h276.2
		c2.6,0,4.8-2,5-4.5C492.6,488.2,495.7,457.1,471.8,443.4L471.8,443.4z M280.2,217.6c-0.6-0.2-1.2-0.4-1.9-0.4c-3,0-5.4,2.4-5.4,5.4
		v67.7c-10.6-1.7-15.5-11.7-15.5-21.1c0-3.4-2.7-6.1-6-6.2c-16.4-0.5-31.9-17.6-31.9-35.2c0-12.6,8.1-27.2,18-32.4
		c1.5-0.8,2.6-2.2,3.1-3.8s0.2-3.4-0.7-4.9c-4.1-6.8-6.6-15.2-6.6-22c0-22.1,18-40.1,40.1-40.1c3.4,0,6.2-2.8,6.2-6.2
		c0-22.1,18-40.1,40.1-40.1c9.8,0,21.2,4.8,29.2,12.3c1.4,1.3,3.3,1.9,5.3,1.6c1.5-0.3,3.1-0.4,4.7-0.4c13.4,0,23.3,7.4,26.5,19.8
		c0.5,2,1.9,3.6,3.9,4.3c1.9,0.7,4,0.4,5.7-0.7c5.8-4,12.7-6.2,19.9-6.2c17.5,0,32.4,13.1,34.7,30.4c0.4,3.1,3.4,5.4,6.5,5.4
		c14.1,0,25.7,11.5,25.7,25.7c0,11.2-7.4,21.2-18.1,24.5c-0.6,0.1-1.2,0.3-1.8,0.6c-2.7,1.5-3.9,4.7-2.9,7.6
		c0.3,0.8,0.7,1.5,1.3,2.1c0.7,0.9,1.4,1.8,2.3,2.7c4.2,4.9,9,10.4,9,20.6c0,11.7-5,19-15.3,22.2c-2.6,0.8-4.4,3.2-4.4,5.9
		c0,22.4-8.8,33.8-26.2,33.8v-55.8l0-12.3c0-3-2.4-5.4-5.4-5.4c-0.6,0-1.1,0.2-1.7,0.3c-0.2-0.1-0.5-0.1-0.7-0.1
		c-18.2,0-33.1-14.8-33.1-33.1c0-1.3-0.8-2.4-1.9-2.9c-1.2-0.5-2.5-0.2-3.4,0.7c-8,8-18.5,12.3-29.8,12.3s-21.8-4.4-29.8-12.3
		c-0.9-0.9-2.2-1.2-3.4-0.7c-1.2,0.5-1.9,1.6-1.9,2.9c0,18.2-14.8,33.1-33.1,33.1C280.8,217.4,280.5,217.5,280.2,217.6L280.2,217.6z
		 M283.7,310.3v-86.9c18.3-1.2,33.3-14.9,36.2-32.6c8.4,6.5,18.6,9.9,29.4,9.9s21-3.5,29.4-9.9c2.9,17.6,17.6,31.2,35.7,32.6l0,42.2
		v44.8c0,36-29.3,65.3-65.3,65.3C313,375.6,283.7,346.3,283.7,310.3L283.7,310.3z M389,409.2c-9.2,13.1-23.9,20.8-40,20.8
		c-16,0-30.6-7.6-39.8-20.5c3.7-2.6,8.5-6.9,8.5-11.9v-17.9c9.6,4.3,20.2,6.8,31.3,6.8c11.4,0,22.3-2.5,32-7.1v18.3
		C381,402.4,385.4,406.6,389,409.2L389,409.2z M216.6,484c0.8-8.1,3.7-24.1,15.4-31.8l74.4-40.8c9.8,13.9,25.5,22.1,42.6,22.1
		c17.2,0,33.1-8.3,42.8-22.4c0.2,0.1,0.4,0.2,0.5,0.3l74.5,40.8c13.4,7.7,15.5,23.9,15.7,31.8L216.6,484z M350,354.4L350,354.4
		c-10.3,0-20.2-4.4-27-12.1c-1.1-1.3-1-3.2,0.3-4.4c1.3-1.1,3.2-1,4.4,0.3c5.7,6.4,13.8,10,22.4,10h0c8.5,0,16.7-3.7,22.4-10
		c1.2-1.3,3.1-1.4,4.4-0.3c1.3,1.1,1.4,3.1,0.3,4.4C370.2,350,360.3,354.4,350,354.4L350,354.4z"/>
</g>
<path class="st0" d="M466,625.4H234c-12.3,0-22.2-5.9-22.2-13.1L206.2,497c0-7.2,10-13.1,22.2-13.1h243.2c12.3,0,22.2,5.9,22.2,13.1
	l-5.6,115.3C488.2,619.6,478.2,625.4,466,625.4z"/>
</svg>
