<?xml version="1.0" encoding="utf-8"?>
<!-- Generator: Adobe Illustrator 26.2.1, SVG Export Plug-In . SVG Version: 6.00 Build 0)  -->
<svg version="1.1" id="Layer_1" xmlns="http://www.w3.org/2000/svg" xmlns:xlink="http://www.w3.org/1999/xlink" x="0px" y="0px"
	 viewBox="0 0 560 488.8" style="enable-background:new 0 0 560 488.8;" xml:space="preserve">
<style type="text/css">
	.st0{fill:#9C9CA0;}
</style>
<g>
	<path class="st0" d="M560,143v44.8c-0.4,1-0.8,2-1,3.1c-2.2,17.9-7.4,35.3-15.1,51.5c-17.1,35.4-40.1,67.7-67.9,95.5
		c-56.7,59-122,106.9-191.5,149.5c-2.5,1.9-5.9,1.9-8.3,0c-55.9-33.4-108.4-72-156.8-115.5c-34.8-30.6-65-66-89.8-105.1
		c-13.6-21.5-22.8-45.5-27-70.6c-4.2-25.1-3.3-50.8,2.6-75.5C30.7,7.6,171.4-38.6,259.1,37.2c7.5,6.4,14.1,13.9,21.6,21.3h0
		c0.5-0.8,1-1.5,1.5-2.2c39.2-43.8,87.6-63.4,145.6-53.7c63.6,10.6,105.2,48.6,125.5,109.7C556.2,122.4,558.4,132.6,560,143L560,143
		z"/>
</g>
</svg>
