<?xml version="1.0" encoding="utf-8"?>
<!-- Generator: Adobe Illustrator 26.2.1, SVG Export Plug-In . SVG Version: 6.00 Build 0)  -->
<svg version="1.1" id="a" xmlns="http://www.w3.org/2000/svg" xmlns:xlink="http://www.w3.org/1999/xlink" x="0px" y="0px"
	 viewBox="0 0 158.8 46.1" style="enable-background:new 0 0 158.8 46.1;" xml:space="preserve">
<style type="text/css">
	.st0{fill:#F6511D;}
</style>
<path class="st0" d="M95.2,8.4c-2.1-2.1-5.3-2.1-7.4,0l-7.3,7.3l-7.3-7.3c-2.1-2.1-5.3-2.1-7.4,0s-2.1,5.3,0,7.4l7.3,7.3l-7.3,7.3
	c-2.1,2.1-2.1,5.3,0,7.4c1,1,2.3,1.5,3.7,1.5s2.7-0.5,3.7-1.5l7.3-7.3l7.3,7.3c1,1,2.3,1.5,3.7,1.5s2.7-0.5,3.7-1.5
	c2.1-2.1,2.1-5.3,0-7.4l-7.3-7.3l7.3-7.3C97.1,13.8,97.1,10.5,95.2,8.4L95.2,8.4L95.2,8.4z"/>
</svg>
